Motion_sv01_j
version=1
nRows=10
nColumns=43
inDegrees=yes
endheader
time	pelvis_tilt	pelvis_list	pelvis_rotation	pelvis_tx	pelvis_ty	pelvis_tz	hip_flexion_r	hip_adduction_r	hip_rotation_r	knee_angle_r	ankle_angle_r	subtalar_angle_r	mtp_angle_r	hip_flexion_l	hip_adduction_l	hip_rotation_l	knee_angle_l	ankle_angle_l	subtalar_angle_l	mtp_angle_l	lumbar_extension	lumbar_bending	lumbar_rotation	neck_flexion	neck_lateral_bending	neck_rotation	arm_flex_r	arm_add_r	arm_rot_r	elbow_flex_r	pro_sup_r	wrist_flex_r	wrist_dev_r	hand_finger_flex_r	arm_flex_l	arm_add_l	arm_rot_l	elbow_flex_l	pro_sup_l	wrist_flex_l	wrist_dev_l	hand_finger_flex_l
      1.45000000	      2.86906375	    -13.50895115	    -74.78484610	     -0.06166541	      0.92448275	     -0.13860875	     13.79989063	     -6.64676418	    -11.84326329	    -29.64391989	      5.40238428	     -1.22029348	     -5.14626618	    -32.28149275	     -5.89442798	    -37.79400493	    -10.01937239	     16.65986828	     26.18563356	     26.21504712	    -44.07086501	      0.73845531	     12.14112635	     13.78806105	     -0.75756525	    -25.68533681	      3.75827903	     -9.99709637	    -23.11082539	     53.79279718	    145.56700122	    -11.84073005	     -5.68963405	    -31.68972252	    -14.66371205	    -12.42668914	      1.69536901	    100.37526878	    124.27876512	    -10.40511786	    -18.66081571	     21.52000106
      1.45250000	      2.72185893	    -13.53488424	    -74.90280803	     -0.06166335	      0.92444732	     -0.13938011	     13.76183531	     -6.44095530	    -11.62653679	    -29.35205233	      4.97022256	     -1.40519864	     -5.20755950	    -32.26866883	     -5.88160731	    -37.71615448	     -9.95649940	     17.21033379	     25.45624431	     23.80614935	    -44.11981999	      0.79772059	     12.23772227	     14.21863771	     -0.89036771	    -25.92738558	      3.60510562	    -10.10141033	    -22.89429197	     54.27993650	    145.13773548	    -11.69501303	     -5.35350062	    -31.35869161	    -14.77236443	    -12.23859907	      1.20890599	    100.53290273	    124.70521723	     -9.42842326	    -18.66545528	     22.05359234
      1.45500000	      2.71555645	    -13.55612354	    -74.89993637	     -0.06158498	      0.92440318	     -0.14002053	     13.76809282	     -6.43824017	    -11.64558836	    -29.34014523	      4.96875588	     -1.40811120	     -5.20796453	    -32.26371545	     -5.86457125	    -37.71068583	     -9.93017199	     17.22703376	     25.46399137	     23.79371306	    -44.10304044	      0.77687369	     12.23784213	     14.21674004	     -0.88197169	    -25.92691541	      3.60163520	    -10.14120909	    -22.92138586	     54.28000770	    145.13741384	    -11.70647505	     -5.35102654	    -31.36166597	    -14.76328681	    -12.27438261	      1.14700193	    100.50933304	    124.69893995	     -9.44531576	    -18.65444826	     22.04765199
      1.45750000	      2.70984921	    -13.58211289	    -74.89797816	     -0.06145435	      0.92437720	     -0.14066558	     13.77448226	     -6.44697561	    -11.65957078	    -29.31800313	      4.96235282	     -1.40926349	     -5.20916510	    -32.26138015	     -5.84196492	    -37.70889536	     -9.89848026	     17.24869983	     25.46854979	     23.78259743	    -44.07648517	      0.76892826	     12.24091560	     14.22236465	     -0.87212619	    -25.93062122	      3.60378841	    -10.16127254	    -22.93816346	     54.29160355	    145.13726294	    -11.71772576	     -5.35180765	    -31.36443811	    -14.76260170	    -12.30930367	      1.09037704	    100.48164418	    124.69378853	     -9.46010503	    -18.64237135	     22.04258486
      1.46000000	      2.69962662	    -13.59783987	    -74.89985786	     -0.06149119	      0.92433519	     -0.14130491	     13.78112600	     -6.44685780	    -11.67730671	    -29.28374858	      4.94796131	     -1.40767698	     -5.21158189	    -32.26300215	     -5.80947720	    -37.71039528	     -9.84836376	     17.28325152	     25.47115550	     23.76904113	    -44.05149299	      0.75267108	     12.22170051	     14.23397516	     -0.86084102	    -25.93912418	      3.59753837	    -10.19606614	    -22.96709180	     54.30995372	    145.13656259	    -11.73433246	     -5.35179044	    -31.36835756	    -14.76587205	    -12.35350134	      1.01717360	    100.44238934	    124.68738499	     -9.47885754	    -18.62534944	     22.03625647
      1.46250000	      2.73516849	    -13.52525658	    -74.90134115	     -0.06098633	      0.92411317	     -0.14184650	     13.79507240	     -6.54786626	    -11.77501482	    -29.10887826	      4.78089496	     -1.37597170	     -5.23679510	    -32.32390783	     -5.59551943	    -37.73003503	     -9.45765053	     17.55253079	     25.47475416	     23.58122323	    -43.96683880	      0.71248946	     12.14260038	     14.34534771	     -0.83997542	    -26.01258335	      3.55787149	    -10.15266768	    -23.02873335	     54.40356089	    145.14377717	    -11.83338079	     -5.38600584	    -31.37839340	    -14.87419831	    -12.27704019	      0.89558167	    100.44305364	    124.63134350	     -9.59550800	    -18.58866670	     21.98148735
      1.46500000	      2.73083021	    -13.55444945	    -74.89623192	     -0.06087301	      0.92407589	     -0.14244854	     13.80309928	     -6.54719713	    -11.77833636	    -29.10606879	      4.77662136	     -1.37327810	     -5.23727166	    -32.32679687	     -5.58195485	    -37.72996094	     -9.45170471	     17.55717713	     25.47456061	     23.57017426	    -43.94895682	      0.70352188	     12.13911321	     14.35430416	     -0.83923427	    -26.01651770	      3.56229459	    -10.18255407	    -23.04611089	     54.41481927	    145.14355710	    -11.84083284	     -5.38692564	    -31.37905051	    -14.87110468	    -12.31561234	      0.84682625	    100.42069672	    124.62857161	     -9.60585788	    -18.57890529	     21.97843873
      1.46750000	      2.72504422	    -13.57796777	    -74.89553016	     -0.06077474	      0.92405723	     -0.14306213	     13.81110730	     -6.55427959	    -11.78233979	    -29.09591796	      4.76680066	     -1.36946376	     -5.23863051	    -32.32568177	     -5.56396376	    -37.73270289	     -9.42672143	     17.57110759	     25.47264565	     23.55733274	    -43.93894774	      0.69628244	     12.13295549	     14.36801293	     -0.83830361	    -26.02411304	      3.56174001	    -10.21299885	    -23.06636754	     54.43123171	    145.14266542	    -11.85040435	     -5.38904969	    -31.37982839	    -14.87170534	    -12.36404432	      0.78113901	    100.38993110	    124.62465809	     -9.61931931	    -18.56534931	     21.97467001
      1.47000000	      2.74420756	    -13.55770593	    -74.90913919	     -0.06080412	      0.92398084	     -0.14359341	     13.83146298	     -6.58558692	    -11.81363475	    -29.02654161	      4.66513220	     -1.33477501	     -5.25290598	    -32.37542715	     -5.44617196	    -37.76213009	     -9.19884923	     17.69900339	     25.44754111	     23.46141545	    -43.90737545	      0.65176786	     12.04894134	     14.47388072	     -0.87022702	    -26.08470305	      3.54976417	    -10.15218770	    -23.06939975	     54.55143411	    145.13720222	    -11.89017687	     -5.43348725	    -31.37487350	    -14.89754917	    -12.39494654	      0.64560386	    100.33703126	    124.60216350	     -9.66830065	    -18.52830554	     21.95525343
      1.47250000	      2.74209270	    -13.57715705	    -74.90185126	     -0.06060917	      0.92393407	     -0.14420104	     13.84042304	     -6.60215240	    -11.81419884	    -29.01914248	      4.65520334	     -1.33184655	     -5.25429792	    -32.37646740	     -5.42399944	    -37.76385636	     -9.17922568	     17.70801444	     25.44564155	     23.44708658	    -43.89869478	      0.65062590	     12.05219030	     14.48642110	     -0.87221518	    -26.09060653	      3.54976656	    -10.21431500	    -23.10707255	     54.55784281	    145.13451790	    -11.89876226	     -5.43163460	    -31.37454365	    -14.91222551	    -12.42476363	      0.59766619	    100.33759571	    124.59687778	     -9.67973947	    -18.52389112	     21.95262645
